<svg width="72" height="72" viewBox="0 0 72 72" fill="none" xmlns="http://www.w3.org/2000/svg">
<path d="M0 0H52C63.0457 0 72 8.95431 72 20V52C72 63.0457 63.0457 72 52 72H0V0Z" fill="#7C5DFA"/>
<mask id="mask0_21_744" style="mask-type:alpha" maskUnits="userSpaceOnUse" x="0" y="0" width="72" height="72">
<path d="M0 0H52C63.0457 0 72 8.95431 72 20V52C72 63.0457 63.0457 72 52 72H0V0Z" fill="white"/>
</mask>
<g mask="url(#mask0_21_744)">
<path d="M72 36.3495H20C8.95431 36.3495 0 45.3038 0 56.3495V88.3495C0 99.3952 8.95431 108.35 20 108.35H72V36.3495Z" fill="#9277FF"/>
</g>
<path fill-rule="evenodd" clip-rule="evenodd" d="M29.486 23.0001L36 35.8993L42.514 23.0001C46.9652 25.3089 50 29.9102 50 35.2098C50 42.8259 43.732 49 36 49C28.268 49 22 42.8259 22 35.2098C22 29.9102 25.0348 25.3089 29.486 23.0001Z" fill="white"/>
</svg>
