<svg width="20" height="20" viewBox="0 0 20 20" fill="none" xmlns="http://www.w3.org/2000/svg">
<g clip-path="url(#clip0_21_754)">
<path d="M13.5447 6.45502C12.6452 5.55555 11.3754 4.97354 9.99972 4.97354C8.62406 4.97354 7.35422 5.5291 6.45475 6.45502C5.55528 7.35449 4.97327 8.62434 4.97327 10C4.97327 11.3757 5.55528 12.6455 6.45475 13.545C7.35422 14.4444 8.62406 15.0265 9.99972 15.0265C11.3754 15.0265 12.6452 14.4709 13.5447 13.545C14.4442 12.6455 15.0262 11.3757 15.0262 10C15.0262 8.62434 14.4706 7.35449 13.5447 6.45502Z" fill="#858BB2"/>
<path d="M9.99996 3.4127C10.3703 3.4127 10.6878 3.09524 10.6878 2.72487V0.68783C10.6878 0.31746 10.3703 0 9.99996 0C9.62959 0 9.31213 0.31746 9.31213 0.68783V2.72487C9.31213 3.09524 9.62959 3.4127 9.99996 3.4127Z" fill="#858BB2"/>
<path d="M15.6349 5.34398L17.09 3.88895C17.3545 3.6244 17.3545 3.20112 17.09 2.93657C16.8254 2.67202 16.4021 2.67202 16.1376 2.93657L14.6825 4.3916C14.418 4.65615 14.418 5.07943 14.6825 5.34398C14.9206 5.60853 15.3439 5.60853 15.6349 5.34398Z" fill="#858BB2"/>
<path d="M19.3121 9.31219H17.2751C16.9047 9.31219 16.5873 9.62966 16.5873 10C16.5873 10.3704 16.9047 10.6879 17.2751 10.6879H19.3121C19.6825 10.6879 20 10.3704 20 10C20 9.62966 19.6825 9.31219 19.3121 9.31219Z" fill="#858BB2"/>
<path d="M15.6083 14.6561C15.3438 14.3915 14.9205 14.3915 14.6559 14.6561C14.3914 14.9206 14.3914 15.3439 14.6559 15.6085L16.111 17.0635C16.3755 17.328 16.7988 17.328 17.0633 17.0635C17.3279 16.7989 17.3279 16.3757 17.0633 16.1111L15.6083 14.6561Z" fill="#858BB2"/>
<path d="M9.99996 16.5872C9.62959 16.5872 9.31213 16.9047 9.31213 17.2751V19.3121C9.31213 19.6825 9.62959 19.9999 9.99996 19.9999C10.3703 19.9999 10.6878 19.6825 10.6878 19.3121V17.2751C10.6878 16.9047 10.3703 16.5872 9.99996 16.5872Z" fill="#858BB2"/>
<path d="M4.36511 14.6561L2.91008 16.1111C2.64553 16.3757 2.64553 16.7989 2.91008 17.0635C3.17463 17.328 3.59791 17.328 3.86246 17.0635L5.31749 15.6085C5.58204 15.3439 5.58204 14.9206 5.31749 14.6561C5.07939 14.3915 4.65611 14.3915 4.36511 14.6561Z" fill="#858BB2"/>
<path d="M3.4127 10C3.4127 9.62966 3.09524 9.31219 2.72487 9.31219H0.68783C0.31746 9.31219 0 9.62966 0 10C0 10.3704 0.31746 10.6879 0.68783 10.6879H2.72487C3.09524 10.6879 3.4127 10.3704 3.4127 10Z" fill="#858BB2"/>
<path d="M4.36511 5.34398C4.62966 5.60853 5.05294 5.60853 5.31749 5.34398C5.58204 5.07943 5.58204 4.65615 5.31749 4.3916L3.86246 2.93657C3.59791 2.67202 3.17463 2.67202 2.91008 2.93657C2.64553 3.20112 2.64553 3.6244 2.91008 3.88895L4.36511 5.34398Z" fill="#858BB2"/>
</g>
<defs>
<clipPath id="clip0_21_754">
<rect width="20" height="20" fill="white"/>
</clipPath>
</defs>
</svg>
